<svg width="25" height="24" viewBox="0 0 25 24" fill="none" xmlns="http://www.w3.org/2000/svg">
<g id="Icon/Outline/arrow-right">
<path id="Mask" fill-rule="evenodd" clip-rule="evenodd" d="M5.5 13H17.365L13.732 17.36C13.378 17.784 13.436 18.415 13.86 18.768C14.285 19.122 14.915 19.064 15.269 18.64L20.269 12.64C20.308 12.593 20.327 12.538 20.356 12.486C20.38 12.444 20.409 12.408 20.427 12.362C20.472 12.247 20.499 12.126 20.499 12.004C20.499 12.003 20.5 12.001 20.5 12C20.5 11.999 20.499 11.997 20.499 11.996C20.499 11.874 20.472 11.753 20.427 11.638C20.409 11.592 20.38 11.556 20.356 11.514C20.327 11.462 20.308 11.407 20.269 11.36L15.269 5.36C15.07 5.123 14.786 5 14.5 5C14.274 5 14.047 5.076 13.86 5.232C13.436 5.585 13.378 6.216 13.732 6.64L17.365 11H5.5C4.948 11 4.5 11.448 4.5 12C4.5 12.552 4.948 13 5.5 13" fill="#FBFBFB"/>
</g>
</svg>
