<svg width="87" height="86" viewBox="0 0 87 86" fill="none" xmlns="http://www.w3.org/2000/svg">
<g id="Icon/Outline/wallet">
<mask id="mask0_868_5771" style="mask-type:alpha" maskUnits="userSpaceOnUse" x="0" y="0" width="87" height="86">
<path id="icon" fill-rule="evenodd" clip-rule="evenodd" d="M58.5099 0.337C63.1299 -0.983074 67.9453 1.69225 69.2653 6.31251C69.4873 7.08982 69.6 7.8943 69.6 8.70272L69.6 15.9862H78.3C83.1049 15.9862 87 19.8815 87 24.6867V76.8895C87 81.6947 83.1049 85.59 78.3 85.59H8.7C3.89512 85.59 0 81.6947 0 76.8895H0.11616C0.0389402 76.4217 0 75.9478 0 75.4725V23.6178C0 19.7332 2.575 16.3193 6.30993 15.2521L58.5099 0.337ZM35.4092 76.8895H78.3L78.3 42.0876H69.6V60.5574C69.6 64.442 67.025 67.8559 63.2901 68.9231L35.4092 76.8895ZM78.3 24.6867L78.3 33.3871H69.6L69.6 24.6867H78.3ZM8.7 23.6177V75.4724L60.9 60.5573V8.70259L8.7 23.6177ZM52.2 33.3871C52.2 35.7897 50.2524 37.7374 47.85 37.7374C45.4476 37.7374 43.5 35.7897 43.5 33.3871C43.5 30.9846 45.4476 29.0369 47.85 29.0369C50.2524 29.0369 52.2 30.9846 52.2 33.3871Z" fill="black"/>
</mask>
<g mask="url(#mask0_868_5771)">
<g id="&#240;&#159;&#142;&#168; Color">
<rect id="Base" x="-8.7" y="-5.76501" width="104.4" height="104.406" fill="#FBFBFB"/>
</g>
</g>
</g>
</svg>
